<?xml version="1.0" standalone="no"?>
<!DOCTYPE svg PUBLIC "-//W3C//DTD SVG 20010904//EN"
 "http://www.w3.org/TR/2001/REC-SVG-20010904/DTD/svg10.dtd">
<svg version="1.0" xmlns="http://www.w3.org/2000/svg"
 width="1280.000000pt" height="503.000000pt" viewBox="0 0 1280.000000 503.000000"
 preserveAspectRatio="xMidYMid meet">
<metadata>
Created by potrace 1.16, written by Peter Selinger 2001-2019
</metadata>
<g transform="translate(0.000000,503.000000) scale(0.100000,-0.100000)"
fill="#000000" stroke="none">
<path d="M170 5014 c0 -9 -5 -12 -12 -8 -7 4 -8 3 -4 -4 4 -7 3 -12 -1 -12
-17 0 -13 -65 4 -90 19 -27 85 -41 98 -21 3 6 0 11 -7 11 -10 0 -9 3 2 9 8 6
17 8 21 5 8 -5 20 21 26 54 6 36 -38 72 -87 72 -30 0 -40 -4 -40 -16z m49 -10
c5 4 18 -5 29 -18 15 -20 22 -22 33 -13 11 10 11 9 0 -5 -7 -10 -11 -25 -7
-33 3 -9 2 -13 -4 -10 -6 3 -10 2 -10 -3 0 -23 -79 -37 -97 -17 -5 4 -1 5 7 1
13 -7 13 -6 0 6 -16 14 -22 58 -8 58 4 0 7 6 6 13 -2 6 3 11 11 9 9 -2 11 3 7
14 -5 14 -4 15 8 5 8 -7 19 -10 25 -7z"/>
<path d="M7306 4198 c4 -7 3 -8 -4 -4 -6 4 -24 1 -39 -7 -15 -8 -34 -12 -40
-10 -7 3 -13 0 -13 -6 0 -6 -7 -11 -15 -11 -8 0 -15 -5 -15 -11 0 -5 -5 -7
-10 -4 -6 4 -25 -8 -42 -27 -17 -18 -28 -26 -23 -18 5 9 0 8 -13 -4 -24 -21
-29 -32 -10 -20 6 4 8 3 5 -4 -4 -5 -18 -9 -31 -8 -25 3 -96 53 -96 68 0 5 -4
7 -9 3 -6 -3 -20 5 -32 17 -12 13 -19 17 -15 11 5 -9 2 -11 -8 -7 -9 3 -13 11
-9 17 4 6 -2 8 -15 5 -12 -4 -20 -3 -18 1 3 4 -38 8 -91 9 -52 0 -93 -1 -90
-4 2 -3 -8 -18 -24 -34 -16 -16 -29 -39 -30 -52 0 -13 -2 -34 -3 -46 -2 -13 3
-26 11 -29 7 -3 13 -11 13 -19 0 -8 5 -14 11 -14 5 0 7 -5 4 -10 -4 -6 -1 -9
7 -8 7 2 12 -3 10 -10 -1 -6 1 -11 5 -10 12 4 54 -28 46 -35 -3 -4 4 -7 16 -7
12 0 19 -4 16 -10 -6 -9 8 -14 28 -11 4 0 7 -3 7 -9 0 -5 9 -10 20 -10 11 0
20 -4 20 -9 0 -5 7 -12 16 -15 10 -4 13 -2 7 7 -4 6 5 4 20 -6 15 -10 32 -15
37 -12 6 3 10 1 10 -5 0 -6 4 -9 9 -6 5 3 22 -1 37 -9 16 -8 30 -11 31 -7 2 4
34 6 73 4 48 -2 70 1 70 9 0 6 7 9 15 5 8 -3 15 -1 15 5 0 6 4 8 9 4 5 -3 13
0 16 6 4 5 13 8 21 5 8 -3 17 1 20 9 4 8 10 12 15 9 5 -3 9 0 9 7 0 7 3 10 6
7 3 -3 17 5 31 18 14 13 29 21 33 19 4 -3 11 2 14 11 4 9 9 14 13 11 3 -4 12
1 20 11 9 11 12 12 8 2 -4 -8 3 -4 16 10 14 14 38 38 54 54 17 16 23 26 15 22
-9 -5 -8 -2 2 7 10 8 15 16 12 20 -3 3 0 14 8 26 11 17 10 25 -4 49 -10 16
-16 31 -15 33 1 2 0 3 -2 2 -2 -2 -11 3 -19 9 -16 14 -28 17 -100 23 -38 3
-51 2 -46 -7z"/>
<path d="M7040 3691 c0 -3 -16 -6 -36 -7 -20 0 -39 -6 -44 -14 -4 -7 -13 -9
-19 -6 -6 4 -11 2 -11 -4 0 -6 -4 -8 -10 -5 -5 3 -10 1 -10 -5 0 -7 -6 -10
-12 -8 -7 3 -21 -5 -31 -16 -10 -12 -16 -14 -12 -6 4 8 -1 6 -10 -5 -9 -11
-20 -20 -25 -20 -4 0 -12 -4 -17 -9 -5 -6 -2 -6 7 -1 13 8 13 7 1 -8 -7 -9
-19 -17 -25 -17 -6 0 -16 -10 -21 -22 -6 -13 -14 -23 -20 -23 -15 1 -56 -65
-49 -77 5 -7 2 -8 -6 -3 -10 6 -12 4 -7 -8 3 -10 2 -17 -3 -17 -5 0 -7 -7 -4
-15 4 -8 1 -15 -6 -15 -6 0 -8 -4 -5 -10 3 -5 1 -19 -5 -30 -7 -13 -7 -20 0
-20 5 0 10 -4 10 -10 0 -5 -7 -7 -15 -4 -8 4 -15 1 -15 -5 0 -6 -13 -17 -30
-26 -16 -9 -30 -12 -30 -8 0 4 -14 -8 -31 -27 -17 -19 -25 -26 -18 -15 13 18
13 19 -3 6 -10 -7 -15 -17 -13 -22 3 -5 -3 -14 -15 -21 -11 -7 -20 -19 -20
-26 0 -7 -7 -15 -15 -18 -8 -4 -13 -10 -10 -14 3 -4 -2 -11 -11 -14 -9 -4 -14
-9 -11 -12 3 -4 -1 -13 -9 -21 -8 -8 -12 -19 -9 -24 4 -5 3 -15 -2 -21 -4 -7
-9 -24 -11 -37 -2 -14 -7 -32 -13 -42 -10 -20 -10 -92 0 -129 6 -19 2 -30 -13
-43 -12 -10 -21 -22 -21 -25 0 -4 -3 -6 -7 -5 -5 2 -7 -3 -5 -10 1 -6 -5 -11
-13 -9 -8 2 -12 0 -8 -4 4 -4 -3 -16 -15 -28 -12 -12 -24 -25 -25 -31 -2 -5
-12 -20 -22 -33 -11 -12 -20 -28 -20 -36 0 -8 -7 -17 -15 -20 -9 -3 -15 -11
-14 -18 3 -28 -2 -47 -16 -62 -30 -30 -43 -336 -14 -336 4 0 6 -8 4 -17 -2
-10 -4 -23 -4 -30 -1 -6 -15 -22 -33 -34 -18 -13 -28 -17 -23 -8 4 7 -7 -1
-25 -18 -18 -18 -36 -33 -41 -33 -5 0 -9 -5 -9 -11 0 -5 5 -7 12 -3 7 4 8 3 4
-4 -4 -7 -14 -12 -22 -12 -8 0 -12 -4 -9 -10 3 -5 1 -10 -5 -10 -6 0 -8 -5 -5
-10 3 -6 -1 -13 -9 -16 -9 -3 -14 -9 -12 -13 7 -10 -41 -91 -49 -83 -5 4 -5 1
-1 -6 4 -7 2 -19 -4 -27 -6 -8 -9 -18 -6 -23 3 -5 -1 -20 -8 -34 -16 -30 -20
-244 -5 -254 5 -3 7 -15 3 -26 -4 -14 -2 -18 5 -14 7 5 9 1 5 -8 -4 -9 -1 -16
6 -16 7 0 10 -7 6 -16 -3 -8 -2 -12 4 -9 6 3 10 1 10 -4 0 -21 2 -26 13 -33 7
-4 12 -11 12 -16 0 -11 70 -72 83 -72 6 0 15 -8 21 -18 12 -22 155 -22 177 1
4 4 14 7 22 7 7 0 25 9 39 20 14 11 29 17 34 14 5 -3 8 0 7 8 -2 7 2 12 8 11
6 -1 22 10 35 24 13 14 17 23 9 19 -8 -4 -5 1 7 12 12 11 19 22 16 26 -4 3 -1
6 6 6 7 0 9 5 6 10 -3 5 -1 10 5 10 6 0 9 4 6 9 -3 5 1 12 10 15 9 4 14 13 10
21 -3 8 -1 15 4 15 6 0 10 15 10 33 0 19 3 37 7 41 4 3 6 28 4 55 -1 30 2 52
10 57 8 5 10 3 4 -7 -5 -8 4 -1 18 14 15 15 32 25 37 22 6 -4 9 -1 8 7 -2 7 3
12 10 10 7 -1 20 11 30 28 11 16 22 27 25 23 4 -3 7 3 7 14 0 11 12 32 26 47
15 14 24 26 20 26 -4 0 0 7 8 16 9 8 14 20 11 25 -4 5 -2 9 3 9 6 0 13 7 16
16 4 10 2 13 -7 7 -6 -4 -4 5 6 20 10 15 15 33 11 39 -5 7 -3 8 6 3 9 -6 10
-2 5 15 -4 12 -3 20 2 17 4 -3 9 11 10 31 1 44 13 141 19 161 4 11 8 10 18 -5
8 -10 18 -16 22 -12 4 4 13 3 20 -3 8 -6 49 -11 91 -11 83 -1 96 1 129 20 12
6 24 8 28 5 3 -3 6 0 7 8 0 8 5 3 11 -11 6 -14 10 -32 9 -41 -1 -8 5 -28 13
-43 8 -16 12 -35 9 -42 -3 -8 0 -14 6 -14 6 0 8 -7 5 -15 -4 -8 1 -17 10 -21
9 -3 16 -12 16 -19 0 -8 5 -17 12 -21 7 -5 8 -2 3 7 -4 8 1 6 11 -4 19 -17 27
-77 11 -77 -5 0 -5 -4 -2 -10 3 -5 -1 -32 -9 -60 -8 -28 -11 -48 -7 -46 5 3 8
-13 8 -35 0 -27 -3 -36 -9 -27 -9 14 -1 -30 12 -68 5 -11 6 -31 3 -45 -3 -15
3 -33 16 -48 24 -27 27 -35 9 -25 -7 4 -5 -2 5 -13 9 -11 17 -30 17 -42 0 -12
4 -20 8 -17 5 3 4 -18 -2 -45 -8 -38 -7 -55 3 -70 7 -12 10 -23 7 -26 -2 -3 8
-17 23 -31 15 -15 18 -20 7 -12 -20 15 -20 14 -4 -5 9 -11 29 -22 44 -23 15
-1 33 -7 40 -13 14 -11 122 -10 130 2 2 5 11 6 19 2 9 -3 26 2 40 11 14 9 30
14 35 11 6 -3 10 -1 10 5 0 6 5 8 10 5 6 -3 10 -1 10 5 0 6 5 8 10 5 6 -3 10
-2 10 3 0 12 71 57 83 54 5 -2 11 7 14 18 3 11 11 20 18 20 12 0 52 46 53 60
2 20 16 39 25 33 5 -3 7 -1 4 4 -4 6 0 16 8 23 10 8 13 21 9 33 -4 13 -2 17 5
13 8 -5 11 2 11 21 -1 15 2 40 6 55 3 15 3 36 -1 45 -5 10 -9 23 -10 28 -1 6
-3 15 -5 20 -5 18 -7 30 -8 43 -1 6 -7 11 -14 10 -7 -2 -12 2 -13 7 0 6 -17
28 -37 49 -36 39 -54 76 -38 76 4 0 11 7 14 16 3 8 2 12 -4 9 -6 -3 -10 -2
-10 4 0 5 3 12 8 14 7 5 7 202 -1 297 -2 25 -12 58 -23 75 -10 16 -13 26 -7
22 9 -6 11 -3 7 7 -3 9 -10 16 -14 16 -9 0 -25 40 -22 53 1 4 -3 7 -10 7 -6 0
-8 3 -5 7 4 3 -1 12 -11 20 -9 8 -11 11 -3 7 9 -5 12 -3 7 4 -4 7 -14 12 -22
12 -8 0 -13 4 -11 8 3 11 -61 71 -68 64 -3 -3 -5 2 -5 11 0 10 -6 17 -12 17
-10 0 -9 3 1 9 7 5 11 15 9 22 -3 8 1 30 9 48 7 19 11 41 9 48 -3 7 -2 13 2
13 17 0 0 292 -17 298 -6 2 -9 7 -6 11 7 13 -15 82 -25 76 -6 -3 -7 1 -4 9 4
9 -1 18 -10 22 -9 3 -14 9 -11 13 2 4 -7 19 -21 34 -14 15 -22 27 -19 27 3 0
-13 16 -35 36 -22 20 -37 41 -33 47 3 5 1 7 -4 4 -6 -4 -14 0 -17 9 -3 8 -10
13 -15 10 -15 -10 -31 56 -26 105 4 34 2 49 -10 59 -8 7 -12 16 -9 21 3 5 0 9
-5 9 -6 0 -10 4 -8 9 1 4 -9 18 -23 30 -14 13 -18 19 -10 15 8 -4 6 3 -6 15
-18 19 -36 27 -67 30 -5 1 -5 6 -1 13 5 8 2 9 -9 5 -10 -3 -17 -2 -17 4 0 6
-4 8 -9 4 -5 -3 -12 -1 -15 4 -3 4 -16 9 -28 9 -13 1 -47 5 -75 10 -29 5 -53
6 -53 3z m5 -622 c-3 -4 2 -19 10 -35 7 -15 12 -31 9 -36 -8 -13 6 -49 17 -43
5 4 9 -1 9 -9 0 -35 -99 -50 -136 -20 -10 8 -13 13 -6 9 11 -6 13 -1 16 33 1
7 8 17 16 22 8 5 11 10 6 10 -4 0 -1 11 8 25 9 14 14 25 11 25 -3 0 0 6 7 13
13 14 41 19 33 6z"/>
<path d="M800 3639 c0 -6 -9 -7 -20 -4 -13 4 -20 2 -20 -6 0 -7 -3 -10 -6 -6
-3 3 -13 -1 -22 -9 -9 -8 -28 -24 -42 -35 -14 -11 -18 -18 -10 -14 10 4 9 2
-2 -8 -10 -8 -15 -17 -11 -20 3 -4 0 -7 -7 -7 -7 0 -10 -3 -7 -7 4 -3 1 -13
-6 -21 -13 -17 -20 -222 -7 -222 5 0 6 -9 3 -20 -3 -12 0 -20 7 -20 7 0 10 -7
6 -15 -3 -8 0 -15 6 -15 6 0 8 -3 5 -7 -4 -3 -2 -12 4 -20 6 -7 8 -13 5 -13
-4 0 2 -10 13 -22 11 -11 18 -24 16 -28 -3 -4 6 -16 20 -26 13 -10 22 -21 19
-26 -3 -4 2 -8 11 -8 9 0 14 -4 11 -8 -2 -4 -1 -14 4 -22 9 -14 -37 -116 -68
-152 -8 -10 -12 -18 -7 -18 4 0 2 -7 -5 -15 -6 -8 -8 -20 -4 -26 4 -7 3 -9 -3
-6 -6 4 -10 -5 -11 -21 0 -15 -4 -52 -8 -82 -5 -30 -8 -82 -7 -115 1 -33 1
-77 2 -98 0 -28 4 -37 12 -31 9 5 10 1 7 -14 -4 -13 -1 -22 5 -22 6 0 7 -3 4
-7 -4 -3 -2 -12 5 -20 6 -7 8 -16 5 -20 -4 -3 2 -17 13 -31 11 -13 17 -28 14
-33 -3 -5 0 -9 6 -9 7 0 10 -7 6 -15 -3 -8 -1 -15 5 -15 5 0 14 -12 19 -26 6
-14 14 -23 19 -20 21 13 29 -72 9 -92 -7 -7 -9 -12 -5 -12 4 0 0 -17 -8 -37
-9 -20 -14 -42 -12 -47 2 -6 1 -38 -3 -71 -5 -41 -3 -70 7 -92 7 -18 10 -40 6
-49 -4 -11 -2 -15 4 -11 9 6 14 -7 27 -63 1 -3 12 -20 25 -39 14 -19 19 -31
12 -26 -9 5 -12 3 -9 -6 3 -8 -12 -31 -34 -53 -21 -21 -38 -44 -38 -51 0 -7
-7 -15 -15 -19 -8 -3 -12 -12 -9 -21 3 -8 2 -15 -3 -15 -11 0 -12 -9 -18 -133
-3 -56 -1 -96 4 -93 5 3 12 -6 16 -22 4 -15 5 -27 3 -27 -2 0 7 -11 19 -24 12
-13 20 -27 18 -31 -3 -4 5 -10 16 -13 12 -3 18 -10 15 -15 -3 -5 3 -12 14 -15
11 -3 20 -13 20 -22 0 -11 5 -15 15 -11 8 3 15 1 15 -4 0 -4 14 -11 30 -15 17
-4 27 -11 24 -17 -4 -6 -1 -9 7 -6 8 3 32 -1 53 -9 69 -23 88 -26 231 -28 96
-1 150 3 172 12 18 7 40 10 49 6 11 -4 15 -2 11 4 -4 6 4 8 21 5 15 -3 24 -1
20 3 -7 7 130 80 145 77 4 -1 7 3 7 9 0 5 5 7 10 4 6 -4 9 -1 8 5 -3 12 15 18
57 21 11 1 46 -6 78 -14 32 -9 63 -14 70 -12 12 5 153 17 195 17 12 0 22 4 22
8 0 5 8 9 18 9 30 0 57 6 63 14 3 5 21 9 38 9 18 1 35 7 38 15 3 8 13 11 23 8
11 -3 22 0 27 8 8 13 34 27 61 33 8 1 23 12 35 24 12 12 45 42 72 67 28 26 43
42 35 38 -8 -5 -3 5 12 23 15 17 29 41 33 52 3 11 11 20 17 20 6 0 8 3 5 7 -4
3 -2 12 3 19 6 6 10 16 9 20 -3 10 10 119 17 149 4 16 3 17 -5 5 -9 -13 -11
-12 -12 5 0 11 -2 27 -4 35 -2 8 -6 26 -9 39 -3 14 -10 27 -15 30 -5 4 -11 13
-13 21 -2 8 -10 21 -18 28 -8 8 -9 11 -3 7 9 -4 11 -1 7 9 -3 9 -11 13 -17 9
-6 -3 -7 -1 -3 5 4 7 14 12 22 12 8 0 13 4 10 8 -3 5 3 18 14 29 10 12 16 23
13 27 -3 3 0 12 7 21 7 8 9 15 5 15 -4 0 -2 6 4 14 23 27 11 159 -19 215 -6
12 -8 21 -4 21 4 0 -1 10 -12 22 -10 12 -13 18 -6 14 26 -16 9 7 -49 65 -34
34 -58 55 -54 48 5 -8 -4 -1 -19 14 -16 17 -33 27 -42 23 -8 -3 -12 -2 -9 4 3
6 1 10 -5 10 -6 0 -8 4 -5 10 3 5 -1 23 -10 40 -8 16 -13 30 -9 30 4 0 1 6 -5
13 -6 8 -8 17 -4 20 3 4 1 7 -5 7 -7 0 -12 6 -12 14 0 8 -13 24 -30 36 -16 12
-30 28 -30 36 0 8 -9 14 -19 14 -10 0 -21 7 -25 15 -3 8 -12 12 -19 9 -8 -3
-17 2 -21 11 -4 11 -12 15 -23 11 -9 -4 -20 -1 -24 5 -4 8 -36 11 -91 10 -47
-1 -91 1 -99 4 -21 8 -16 54 9 82 28 31 38 48 24 39 -7 -4 -7 3 1 23 6 17 15
27 20 24 5 -3 6 4 2 17 -4 12 -3 20 1 17 14 -8 9 234 -5 267 -6 16 -9 31 -6
34 2 3 -1 12 -8 20 -10 13 -9 14 1 8 10 -6 10 -2 1 18 -7 14 -15 23 -19 21 -7
-4 -28 34 -26 47 0 3 -11 16 -27 28 -15 12 -24 26 -21 32 4 6 2 8 -4 4 -6 -3
-13 3 -17 14 -4 11 -10 18 -15 15 -5 -3 -17 6 -26 20 -9 13 -20 23 -24 20 -5
-3 -19 5 -31 17 -12 13 -19 16 -15 8 4 -8 0 -6 -8 4 -9 11 -18 17 -22 14 -7
-8 -64 12 -64 22 0 4 -56 8 -125 7 -69 0 -125 -4 -125 -8 0 -5 -7 -6 -16 -2
-9 3 -20 0 -24 -7 -4 -7 -19 -12 -34 -12 -14 0 -24 -4 -21 -8 4 -7 -16 -17
-55 -25 -8 -2 -16 -9 -18 -14 -4 -13 -52 -15 -52 -2 0 4 -13 25 -30 46 -16 21
-30 34 -30 29 0 -4 -7 1 -15 12 -8 10 -15 15 -15 10 0 -6 -7 -1 -16 10 -8 10
-13 12 -9 4 4 -9 0 -7 -9 4 -8 10 -19 15 -25 11 -6 -3 -11 -2 -11 2 0 5 -8 10
-17 11 -10 1 -43 4 -73 7 -30 3 -70 7 -87 9 -18 3 -33 0 -33 -5z m578 -597 c7
-9 10 -23 6 -32 -3 -8 -7 -39 -9 -69 -3 -60 -11 -68 -66 -69 -21 0 -47 -6 -58
-11 -34 -18 -47 -13 -46 18 0 16 3 28 6 26 3 -2 6 28 7 67 1 39 7 77 12 83 15
18 132 8 148 -13z m395 -957 c4 -5 7 -48 6 -95 -1 -81 3 -120 15 -139 9 -13
-36 -30 -79 -30 -22 1 -62 -4 -90 -10 -27 -6 -61 -13 -75 -15 -14 -1 -37 -6
-52 -11 -22 -6 -29 -3 -34 11 -12 35 -35 84 -40 84 -3 0 -3 -4 0 -9 4 -5 -5
-4 -18 2 -14 7 -20 15 -14 18 6 4 5 8 -3 11 -11 4 -10 11 4 37 12 21 17 41 13
57 -5 17 -3 23 4 19 5 -3 10 -1 10 5 0 8 6 8 20 0 11 -6 20 -8 20 -4 0 3 6 2
13 -3 20 -17 161 2 185 25 7 6 19 12 27 12 7 0 16 7 19 16 3 8 10 13 15 10 5
-3 12 1 15 9 6 16 26 16 39 0z"/>
<path d="M3414 3388 c-14 -4 -33 -4 -41 -1 -11 4 -14 2 -9 -5 6 -11 -12 -17
-36 -13 -5 0 -8 -6 -8 -15 0 -8 -4 -12 -10 -9 -5 3 -10 -1 -10 -9 0 -8 -10
-21 -22 -27 -13 -7 -26 -16 -29 -21 -3 -5 -19 -11 -35 -14 -16 -3 -37 -14 -47
-25 -10 -10 -22 -19 -27 -19 -6 0 -10 -9 -10 -19 0 -11 -8 -27 -17 -37 -37
-36 -28 -154 15 -206 18 -22 20 -28 7 -18 -19 14 -19 14 -3 -5 23 -27 104 -31
156 -8 20 9 40 15 45 15 4 -1 7 4 7 12 0 8 5 18 12 22 7 5 8 3 3 -7 -7 -12 -6
-12 7 -1 9 7 31 10 52 8 25 -4 35 -2 30 6 -4 6 -1 9 7 6 7 -2 18 -1 24 3 5 5
28 23 50 41 22 18 33 24 25 13 -15 -20 -15 -20 8 -1 12 11 20 26 18 33 -3 8 1
16 9 19 7 3 11 12 8 20 -3 8 -1 14 5 14 5 0 13 7 16 16 4 9 2 13 -5 8 -8 -4
-8 -1 -1 12 6 11 9 36 8 56 0 20 2 34 6 32 14 -9 8 14 -8 30 -8 9 -12 16 -8
16 3 0 0 7 -7 17 -8 9 -13 19 -11 22 1 3 -3 6 -9 6 -6 0 -16 8 -23 17 -7 10
-16 15 -19 11 -4 -3 -7 -2 -7 4 0 12 -74 12 -116 1z"/>
<path d="M11914 3268 c-3 -5 -12 -7 -19 -4 -8 3 -15 0 -17 -5 -2 -6 -20 -11
-41 -12 -20 -1 -37 -5 -37 -10 0 -4 -12 -4 -26 -1 -19 5 -25 4 -20 -5 4 -6 1
-11 -6 -12 -7 0 -22 -2 -33 -5 -11 -2 -29 -5 -40 -7 -11 -1 -30 -8 -41 -14
-12 -7 -24 -9 -28 -6 -3 3 -6 1 -6 -6 0 -7 -9 -9 -25 -5 -16 4 -25 2 -25 -6 0
-7 -7 -10 -15 -6 -8 3 -15 1 -15 -5 0 -7 -10 -9 -26 -5 -18 5 -24 3 -19 -5 5
-8 1 -9 -15 -4 -14 5 -20 3 -16 -3 4 -6 -2 -8 -14 -5 -12 3 -20 0 -20 -7 0 -7
-7 -10 -15 -6 -8 3 -15 2 -15 -3 0 -8 -16 -11 -57 -12 -13 -1 -20 -5 -17 -11
3 -5 0 -8 -7 -7 -8 1 -27 -3 -43 -10 -16 -6 -31 -9 -34 -6 -3 2 -11 0 -18 -6
-8 -6 -21 -9 -29 -5 -8 3 -15 1 -15 -3 0 -5 -9 -7 -20 -4 -11 3 -20 1 -20 -5
0 -5 -7 -13 -16 -16 -9 -4 -13 -2 -8 5 4 6 -3 6 -17 -2 -25 -14 -45 -20 -69
-21 -8 0 -21 -5 -27 -11 -7 -5 -13 -6 -13 -1 0 5 -4 4 -8 -3 -7 -11 -52 -20
-105 -22 -10 -1 -15 -5 -12 -11 4 -6 -8 -10 -29 -10 -19 0 -37 -4 -41 -10 -3
-5 -12 -7 -20 -3 -8 3 -15 0 -15 -7 0 -6 -4 -8 -10 -5 -11 7 -11 5 -16 -90 -4
-59 -11 -125 -14 -135 -6 -15 -5 -77 2 -92 5 -9 3 -18 -3 -20 -7 -2 -7 -13 1
-33 6 -17 13 -55 16 -85 2 -30 8 -56 13 -58 6 -2 7 -10 4 -18 -3 -8 0 -14 5
-14 8 0 8 -9 0 -31 -10 -30 -13 -31 -52 -25 -28 4 -36 3 -26 -3 10 -7 5 -10
-20 -9 -39 2 -142 -9 -180 -19 -37 -9 -61 -13 -96 -16 -17 -1 -39 -10 -48 -20
-19 -19 -31 -23 -21 -7 9 15 0 12 -23 -9 -18 -15 -22 -28 -21 -87 2 -121 3
-143 9 -139 3 2 6 -8 7 -21 6 -56 8 -64 16 -64 5 0 7 -7 4 -15 -4 -8 -2 -17 4
-21 6 -3 8 -13 5 -21 -4 -9 -2 -11 6 -7 8 5 9 2 5 -9 -3 -10 -3 -17 2 -17 4 0
8 -15 7 -32 -1 -18 -4 -33 -8 -33 -4 0 -15 -10 -23 -23 -9 -12 -21 -20 -26
-17 -5 4 -9 0 -9 -8 0 -10 -7 -13 -20 -10 -11 3 -30 -4 -46 -16 -14 -11 -30
-18 -35 -15 -4 2 -18 -5 -29 -16 -11 -11 -26 -18 -32 -14 -6 4 -9 3 -7 -2 3
-5 -10 -23 -28 -41 -18 -17 -33 -28 -33 -25 0 4 -5 -1 -11 -11 -5 -9 -7 -22
-4 -27 3 -6 2 -10 -3 -10 -12 0 -14 -24 -9 -117 0 -7 5 -13 10 -13 6 0 7 -3 4
-7 -4 -3 -1 -13 7 -22 8 -9 15 -20 15 -26 1 -5 4 -10 9 -10 21 -1 53 -28 48
-41 -4 -9 -2 -12 5 -8 8 5 10 -5 7 -30 -2 -20 0 -36 5 -36 4 0 5 -4 2 -10 -3
-5 -1 -10 4 -10 6 0 10 -3 9 -7 -3 -15 14 -43 23 -37 5 3 9 0 9 -5 0 -6 7 -11
15 -11 8 0 19 -9 25 -20 8 -15 17 -19 31 -15 11 4 19 2 19 -5 0 -7 7 -10 15
-6 8 3 15 2 15 -2 0 -7 10 -10 65 -15 14 -1 25 -4 25 -7 0 -9 229 1 280 13 8
2 32 7 53 11 20 5 37 13 37 18 0 6 7 4 17 -3 9 -8 17 -12 17 -10 1 6 59 -31
67 -43 4 -5 14 -6 22 -3 8 3 18 3 21 -1 23 -22 257 -22 351 1 44 10 85 20 90
21 6 1 20 8 33 14 12 7 26 10 31 7 5 -3 11 -1 13 4 1 5 9 11 17 13 8 2 22 9
32 17 15 12 51 16 222 22 9 0 17 4 17 10 0 5 11 9 25 9 14 0 25 5 25 10 0 6 9
10 21 10 13 0 18 4 13 12 -5 7 -2 9 9 5 9 -3 21 1 29 11 11 13 11 15 -2 8 -8
-4 0 5 18 21 18 15 32 36 32 46 0 10 4 16 9 13 10 -7 23 19 14 28 -4 3 -6 29
-6 56 1 31 -3 49 -10 47 -6 -1 -11 5 -12 13 -1 8 -7 14 -15 12 -10 -2 -11 0
-3 10 6 7 10 39 8 73 -4 77 -6 84 -19 82 -5 -1 -10 3 -11 10 0 7 -6 18 -14 25
-11 11 -13 11 -6 0 6 -11 3 -11 -13 -1 -12 7 -19 17 -16 21 3 4 -2 5 -10 2 -9
-4 -16 -1 -16 6 0 7 -7 10 -15 6 -8 -3 -15 -1 -15 4 0 5 -7 7 -15 4 -8 -4 -21
-2 -28 4 -7 6 -28 10 -47 10 -19 -1 -36 4 -38 10 -2 7 -9 9 -15 5 -7 -4 -8 0
-3 13 4 10 4 15 0 12 -8 -8 -49 31 -57 54 -3 10 -2 20 4 23 5 4 7 11 4 16 -4
5 -1 9 5 9 6 0 9 4 6 9 -3 5 2 24 11 42 10 19 18 52 19 74 4 64 11 137 19 176
9 46 -24 81 -80 87 -16 2 -31 7 -33 12 -2 5 -9 7 -17 4 -7 -3 -16 -1 -20 5 -3
6 -17 8 -31 5 -13 -3 -24 -2 -24 4 0 5 -10 10 -22 10 -13 0 -45 3 -73 7 -27 3
-88 8 -134 10 -73 4 -86 7 -100 27 -8 13 -14 31 -13 41 2 9 -1 17 -5 17 -5 0
-10 8 -11 18 -8 78 -14 107 -23 118 -12 15 -15 207 -3 226 5 7 10 27 11 43 0
17 2 36 2 43 1 7 5 11 10 7 5 -3 15 0 23 7 17 16 36 21 67 19 14 0 27 3 30 8
6 10 88 24 134 22 15 0 25 4 22 9 -3 6 1 7 10 4 8 -4 22 -1 30 6 8 7 21 10 29
7 8 -3 17 -3 20 1 4 3 14 7 24 8 9 2 49 10 87 19 39 9 89 16 113 16 23 0 42 4
42 9 0 5 7 7 15 4 8 -4 30 1 49 10 19 9 41 13 50 10 9 -3 16 -2 16 4 0 9 12
11 83 12 15 1 27 6 27 12 0 5 9 8 20 5 11 -3 23 -1 26 4 3 6 13 7 23 4 10 -3
27 4 39 15 25 24 27 33 9 48 -16 13 -117 14 -117 0 0 -5 -4 -6 -10 -3 -5 3
-15 3 -22 -1 -7 -4 -21 -9 -32 -10 -40 -5 -71 -11 -71 -14 0 -5 -50 -12 -85
-11 -19 0 -40 -5 -47 -10 -8 -7 -18 -7 -32 1 -27 14 -27 20 -1 13 12 -3 20 0
20 6 0 7 4 10 9 6 5 -3 12 -1 16 5 4 6 10 8 15 5 5 -3 17 -1 27 4 24 13 122
41 156 45 15 1 30 5 33 9 3 3 12 3 20 0 8 -3 14 1 14 8 0 7 3 10 6 6 4 -3 22
0 41 8 19 8 38 13 43 10 15 -9 34 43 21 59 -13 16 -68 19 -77 4z m-1551 -1137
c5 -1 5 -6 2 -11 -4 -7 3 -9 22 -5 19 5 24 4 15 -3 -10 -6 -2 -10 27 -11 69
-3 80 -5 74 -14 -2 -4 15 -7 39 -7 41 1 163 -7 163 -11 0 -1 91 -3 202 -4 111
0 200 1 198 4 -2 4 18 7 43 7 26 0 70 4 97 9 28 4 67 7 88 7 20 0 37 4 37 9 0
4 7 6 15 3 8 -4 15 -1 15 6 0 8 9 10 26 6 16 -4 23 -3 19 3 -3 6 0 8 8 5 8 -3
18 -1 22 5 3 6 11 11 17 11 7 0 7 -4 -1 -13 -6 -8 -8 -17 -4 -21 4 -4 -1 -4
-11 0 -15 6 -17 4 -11 -6 5 -8 4 -11 -3 -6 -6 3 -13 2 -17 -3 -3 -6 -13 -7
-22 -4 -11 4 -14 3 -9 -5 4 -8 2 -10 -7 -6 -8 3 -18 1 -21 -5 -4 -6 -19 -8
-35 -5 -15 3 -44 -1 -66 -10 -21 -9 -46 -14 -57 -11 -10 4 -23 3 -30 -2 -22
-14 -441 -20 -543 -8 -27 4 -63 8 -80 10 -16 1 -49 8 -73 14 -23 7 -47 9 -52
6 -5 -3 -23 1 -40 10 -17 9 -36 13 -42 9 -7 -5 -8 -3 -3 6 6 10 4 12 -9 7 -11
-5 -15 -3 -10 5 5 8 1 9 -12 4 -10 -4 -15 -4 -11 0 4 4 2 13 -4 21 -9 11 -7
12 12 9 13 -3 28 -5 32 -5z"/>
<path d="M3189 2866 c-2 -3 -34 -7 -70 -9 -36 -2 -76 -10 -90 -18 -13 -7 -28
-12 -33 -11 -5 2 -25 -12 -44 -30 -19 -18 -31 -26 -27 -18 4 8 -6 2 -23 -14
-17 -16 -29 -33 -26 -38 3 -4 0 -9 -5 -9 -12 -2 -26 -5 -38 -9 -5 -1 -11 -2
-15 -1 -4 0 -12 -8 -18 -19 -6 -11 -15 -18 -21 -15 -5 4 -8 1 -7 -7 2 -7 -4
-12 -12 -10 -8 2 -12 0 -7 -4 4 -4 0 -16 -10 -26 -9 -10 -13 -18 -8 -18 4 0 2
-6 -4 -14 -19 -22 -20 -172 -3 -204 15 -28 18 -72 4 -81 -4 -3 -16 -23 -27
-43 -11 -21 -23 -38 -28 -38 -4 0 -5 -4 -2 -10 3 -5 1 -10 -5 -10 -7 0 -9 -7
-6 -16 4 -10 2 -13 -6 -8 -8 5 -9 2 -5 -9 3 -9 2 -19 -4 -23 -6 -3 -8 -11 -6
-17 2 -7 0 -23 -6 -37 -12 -33 -16 -61 -16 -140 -1 -92 0 -103 15 -124 7 -10
10 -25 7 -34 -4 -10 -2 -13 5 -8 7 4 10 2 7 -6 -3 -7 5 -18 17 -23 23 -10 30
-60 11 -74 -9 -7 -12 -32 -13 -101 -1 -78 8 -118 30 -142 52 -56 67 -70 91
-83 15 -8 29 -21 33 -30 3 -9 14 -15 23 -13 10 1 24 -1 32 -6 20 -13 202 -15
194 -3 -4 6 2 8 15 5 12 -3 22 -2 24 3 7 21 106 33 143 19 40 -16 157 -22 149
-8 -5 7 -2 8 5 3 13 -7 60 11 73 29 3 5 35 10 70 12 34 1 75 7 91 13 15 6 27
7 27 4 0 -4 7 2 15 14 8 11 26 24 40 27 21 5 31 18 23 29 -1 1 10 14 23 29 23
24 26 36 26 108 0 44 -4 80 -8 80 -5 0 -6 6 -3 14 3 7 -2 16 -10 19 -9 4 -16
13 -16 21 0 7 -7 16 -15 20 -8 3 -14 9 -13 13 2 4 -1 10 -7 12 -5 2 -22 12
-36 22 -14 10 -29 16 -33 12 -3 -3 -6 -2 -6 3 0 16 -109 10 -126 -8 -18 -17
-63 -12 -71 8 -3 8 -9 12 -13 9 -4 -3 -11 2 -14 11 -4 9 -13 14 -21 10 -8 -3
-15 -3 -15 0 0 13 92 45 112 39 14 -5 18 -4 14 4 -7 10 8 15 42 14 6 -1 12 3
12 9 0 5 4 7 9 4 5 -4 11 -2 13 3 1 5 10 11 18 13 8 2 21 10 28 18 12 13 13
13 6 0 -4 -8 3 -5 15 7 11 12 21 27 21 33 0 6 5 8 12 4 6 -4 8 -3 4 4 -3 6 -1
16 6 24 7 7 13 29 12 48 0 20 6 41 15 48 13 11 13 12 1 6 -10 -5 -9 -1 4 14
10 12 23 20 28 19 6 -1 12 6 13 16 2 10 11 27 21 38 9 10 14 19 9 19 -4 0 1
12 10 27 23 35 28 182 8 233 -8 19 -14 36 -14 38 3 12 -2 25 -23 49 -13 15
-23 33 -22 38 0 6 -9 14 -21 20 -13 5 -23 16 -23 23 0 8 -6 12 -14 9 -8 -3
-16 -1 -18 5 -4 10 -21 15 -70 20 -10 1 -18 5 -18 9 0 4 -22 7 -48 6 -46 0
-52 3 -102 54 -29 30 -49 47 -45 39 4 -10 1 -9 -8 2 -8 10 -17 15 -20 11 -4
-3 -7 -1 -7 6 0 7 -4 9 -10 6 -5 -3 -10 -1 -10 5 0 6 -4 8 -10 5 -5 -3 -10 -1
-10 5 0 7 -7 9 -16 6 -8 -3 -13 -2 -10 3 3 5 -11 8 -32 8 -20 -1 -46 2 -58 6
-11 4 -22 5 -25 3z m94 -523 c15 -3 27 -10 27 -17 0 -7 4 -6 9 2 6 10 10 7 13
-12 3 -15 3 -25 0 -22 -2 3 -11 -2 -19 -10 -11 -10 -19 -12 -28 -4 -6 5 -33 8
-59 6 -31 -3 -46 -1 -47 7 -1 7 -2 19 -3 27 -3 28 16 41 48 35 17 -4 43 -9 59
-12z"/>
<path d="M8210 2720 c0 -5 -7 -7 -16 -3 -9 3 -20 0 -24 -7 -4 -7 -18 -14 -31
-15 -39 -4 -40 -5 -35 -14 5 -8 -16 -23 -36 -25 -3 -1 -10 -5 -15 -10 -5 -5
-2 -6 7 -1 8 4 -1 -7 -20 -25 -19 -18 -28 -29 -20 -25 9 4 9 1 -2 -8 -10 -8
-18 -24 -18 -36 0 -11 -5 -21 -11 -21 -6 0 -8 -7 -5 -16 3 -8 2 -12 -4 -9 -5
3 -8 -19 -5 -57 9 -156 6 -196 -16 -182 -8 5 -13 -9 -10 -28 0 -5 -4 -8 -10
-8 -5 0 -7 -4 -4 -10 3 -5 2 -10 -3 -10 -5 0 -15 -12 -22 -27 -30 -63 -30
-341 -1 -351 6 -2 11 -15 11 -28 0 -13 4 -24 9 -24 5 0 16 -12 26 -26 11 -18
13 -24 4 -19 -8 4 -2 -4 14 -19 30 -30 34 -57 12 -79 -8 -8 -12 -17 -9 -20 3
-2 -4 -32 -16 -66 -11 -34 -17 -67 -14 -73 4 -7 3 -8 -4 -4 -7 4 -10 -6 -7
-31 1 -21 3 -62 4 -91 1 -29 5 -51 10 -48 10 7 24 -22 16 -34 -3 -5 10 -21 30
-35 19 -15 32 -31 29 -36 -3 -5 2 -9 10 -9 9 0 25 -9 37 -21 11 -11 23 -18 26
-16 2 3 19 -1 36 -8 36 -15 187 -16 187 -2 0 5 7 7 15 3 8 -3 19 2 24 12 6 9
11 13 11 7 0 -5 7 1 16 13 8 12 19 20 24 17 8 -5 25 12 25 27 0 3 15 23 33 44
18 20 31 43 28 51 -3 8 -1 11 4 8 9 -6 14 10 13 43 -1 6 2 12 6 12 9 0 7 223
-3 238 -16 26 -14 94 4 112 20 20 35 54 19 44 -8 -4 -9 1 -3 17 4 13 8 32 8
42 0 9 3 17 6 17 3 0 5 43 5 95 0 52 -2 95 -6 95 -3 0 -4 11 -2 24 5 22 8 23
36 14 18 -5 38 -12 45 -14 10 -3 9 -9 -3 -28 -13 -20 -16 -47 -14 -135 2 -61
7 -111 12 -111 4 0 5 -5 2 -10 -4 -6 5 -31 20 -55 14 -25 22 -45 18 -45 -4 0
-3 -4 2 -8 22 -15 43 -59 35 -72 -4 -7 -6 -19 -3 -27 3 -7 1 -13 -5 -13 -18 0
-13 -180 6 -209 10 -14 12 -22 5 -18 -7 5 -13 4 -13 -2 0 -6 7 -11 16 -11 8 0
13 -4 10 -9 -12 -19 115 -133 131 -117 3 3 23 -4 44 -14 42 -22 149 -22 189 0
11 6 25 8 30 5 6 -4 13 1 16 9 3 9 10 14 14 11 11 -7 61 35 55 45 -3 5 4 19
15 30 11 11 18 26 14 32 -4 6 -3 8 3 5 6 -4 11 3 11 17 0 13 5 47 12 76 18 75
18 230 0 280 -1 3 -2 13 -1 23 1 9 -3 17 -9 17 -6 0 -8 5 -5 10 3 6 1 10 -5
10 -6 0 -8 5 -5 10 3 6 -1 17 -9 26 -9 9 -14 20 -11 25 4 5 1 9 -4 9 -12 0 -9
48 3 68 4 7 4 17 0 24 -4 7 -3 8 5 4 8 -5 11 2 12 21 0 15 1 88 4 160 2 73 0
135 -4 138 -5 2 -6 17 -3 31 3 19 1 25 -6 20 -8 -4 -10 -2 -6 7 3 8 1 18 -5
21 -6 4 -7 14 -4 23 4 11 3 14 -5 9 -8 -5 -10 -2 -6 8 3 9 1 16 -6 16 -6 0 -8
5 -5 10 3 6 2 10 -2 10 -5 0 -14 9 -21 21 -11 17 -11 20 0 14 7 -3 6 -1 -3 7
-8 7 -18 21 -22 31 -3 9 -12 16 -19 15 -7 -2 -12 4 -10 12 2 8 0 12 -3 8 -4
-4 -26 7 -49 25 -56 45 -80 53 -156 56 -35 2 -68 5 -72 7 -4 3 -17 -2 -29 -10
-12 -8 -28 -12 -37 -9 -10 4 -13 2 -8 -5 4 -7 -1 -9 -16 -5 -38 9 -131 11
-170 3 -32 -7 -38 -5 -43 11 -4 11 -10 17 -15 14 -6 -4 -19 14 -25 35 0 3 -16
21 -35 40 -18 19 -30 28 -26 20 4 -9 2 -8 -7 2 -29 36 -197 68 -197 38z"/>
<path d="M4558 2644 c-7 -6 -26 -10 -90 -16 -10 -1 -18 -6 -18 -10 0 -4 -7 -5
-15 -2 -8 4 -15 1 -15 -6 0 -6 -4 -9 -9 -6 -5 4 -11 1 -13 -5 -5 -14 -78 -21
-78 -7 0 6 -7 8 -15 4 -8 -3 -15 -1 -15 4 0 10 -124 5 -141 -6 -8 -5 -9 -3 -4
6 6 9 2 10 -16 5 -13 -4 -25 -11 -27 -16 -2 -4 -10 -5 -18 -2 -7 3 -17 -2 -20
-11 -3 -9 -10 -14 -14 -11 -4 2 -20 -8 -36 -22 -16 -15 -32 -26 -36 -25 -5 1
-8 -5 -8 -13 0 -8 -9 -19 -20 -25 -11 -6 -18 -15 -15 -21 4 -5 1 -9 -5 -9 -7
0 -10 -6 -7 -14 3 -7 -1 -23 -9 -35 -8 -12 -13 -25 -10 -29 3 -5 6 -30 7 -58
2 -66 9 -95 21 -88 15 10 -8 -30 -27 -46 -23 -19 -41 -55 -23 -45 7 3 4 -1 -6
-9 -11 -9 -16 -16 -12 -16 4 0 0 -7 -8 -16 -9 -8 -16 -21 -16 -28 0 -8 -7 -19
-15 -26 -9 -7 -13 -21 -10 -31 4 -11 2 -19 -3 -19 -5 0 -9 -17 -10 -37 -1 -20
-6 -39 -10 -42 -10 -7 -8 -105 3 -136 19 -52 47 -104 61 -109 9 -3 12 -11 8
-17 -4 -7 -3 -9 4 -5 24 15 37 -38 16 -68 -8 -11 -14 -16 -14 -11 0 6 -5 2
-11 -8 -5 -9 -7 -22 -4 -27 3 -6 2 -10 -4 -10 -5 0 -10 -8 -10 -17 -1 -10 -3
-48 -5 -85 -2 -42 1 -76 9 -92 7 -13 11 -27 7 -30 -3 -3 1 -6 8 -6 7 0 10 -3
7 -7 -4 -3 1 -12 11 -20 10 -9 11 -12 2 -7 -8 4 1 -8 20 -26 19 -19 37 -34 40
-35 13 -1 30 -17 25 -24 -7 -12 65 -41 115 -48 107 -12 222 -2 246 22 9 8 20
13 25 10 5 -4 9 -1 9 6 0 7 3 10 6 7 3 -4 14 1 23 10 10 9 26 23 37 30 10 7
13 10 5 6 -9 -5 -12 -3 -7 4 4 6 14 8 23 5 12 -5 14 -3 8 8 -4 8 2 4 15 -9 12
-13 28 -21 36 -18 8 3 14 1 14 -5 0 -5 6 -9 13 -7 6 1 33 -4 59 -11 54 -15
134 -8 202 19 33 12 88 64 99 93 3 9 11 17 17 17 6 0 8 5 5 10 -3 6 1 13 9 16
9 3 15 16 15 27 0 12 3 45 7 72 8 54 8 59 -1 120 -3 22 -7 49 -8 60 -2 11 7
35 19 54 12 18 20 40 17 49 -4 10 -2 13 5 8 8 -5 11 2 8 23 -2 18 1 28 6 25 6
-4 8 5 3 25 -4 17 -3 31 2 31 4 0 8 36 8 79 0 44 -3 75 -7 68 -5 -7 -8 -3 -9
13 0 14 -2 39 -2 55 -1 17 -10 43 -20 58 -10 15 -15 32 -12 37 4 6 0 13 -9 16
-8 3 -17 12 -20 20 -4 10 -1 13 7 9 6 -4 1 2 -12 13 -19 15 -24 29 -23 58 1
22 3 71 4 111 2 41 -1 69 -6 65 -5 -3 -7 2 -3 11 8 21 -11 67 -36 87 -10 9
-19 25 -21 35 -2 11 -5 18 -8 15 -3 -3 -15 3 -25 13 -11 9 -23 14 -26 10 -4
-3 -7 -1 -7 6 0 7 -4 9 -10 6 -5 -3 -10 -2 -10 3 0 5 -6 9 -12 10 -7 1 -26 4
-43 7 -81 13 -131 16 -137 9z m-59 -530 c2 -2 -1 -9 -6 -16 -11 -13 -9 -101 2
-153 11 -50 6 -85 -14 -109 -8 -9 -11 -19 -8 -23 3 -3 0 -18 -8 -33 -13 -24
-19 -27 -54 -23 -21 3 -49 -1 -61 -7 -13 -7 -20 -8 -16 -2 3 6 2 13 -4 17 -6
4 -8 11 -4 16 12 19 22 124 12 130 -5 3 -11 15 -13 25 -2 10 -4 20 -4 22 -1 1
-1 5 -2 10 -1 4 -5 15 -11 26 -7 13 -7 16 1 12 6 -4 12 -2 12 3 1 6 3 16 4 21
1 6 3 17 4 26 0 8 5 13 10 10 12 -8 22 33 15 60 -8 31 18 34 86 11 30 -10 57
-21 59 -23z"/>
</g>
</svg>
