<?xml version="1.0" standalone="no"?>
<!DOCTYPE svg PUBLIC "-//W3C//DTD SVG 20010904//EN"
 "http://www.w3.org/TR/2001/REC-SVG-20010904/DTD/svg10.dtd">
<svg version="1.0" xmlns="http://www.w3.org/2000/svg"
 width="1280.000000pt" height="503.000000pt" viewBox="0 0 1280.000000 503.000000"
 preserveAspectRatio="xMidYMid meet">
<metadata>
Created by potrace 1.16, written by Peter Selinger 2001-2019
</metadata>
<g transform="translate(0.000000,503.000000) scale(0.100000,-0.100000)"
fill="#000000" stroke="none">
<path d="M7272 4185 c-63 -20 -146 -71 -181 -111 -31 -35 -31 -35 -84 10 -165
141 -387 137 -387 -7 0 -126 284 -281 473 -257 119 14 306 128 372 226 74 109
-35 188 -193 139z m158 -43 c66 -53 -74 -185 -285 -269 -85 -33 -85 -33 -162
-13 -235 63 -386 199 -297 269 66 52 249 -5 341 -105 28 -31 35 -30 62 6 67
92 280 161 341 112z"/>
<path d="M6965 3666 c-141 -44 -295 -218 -295 -334 0 -36 -2 -40 -38 -50 -84
-25 -184 -147 -222 -270 -20 -65 -27 -176 -11 -200 5 -9 -13 -34 -58 -80 -143
-144 -206 -374 -156 -562 8 -30 15 -56 15 -56 0 -1 -13 -7 -30 -14 -88 -36
-203 -212 -236 -358 -55 -249 83 -487 274 -469 165 14 312 190 312 373 0 37 4
45 33 63 132 82 237 299 237 492 0 59 0 59 38 40 87 -45 217 -44 283 2 28 20
43 22 36 4 -17 -45 30 -176 85 -233 30 -32 30 -32 14 -85 -30 -101 -18 -256
28 -364 11 -25 18 -70 19 -117 2 -60 6 -83 22 -104 86 -115 330 -71 482 87
134 140 146 309 29 423 -52 51 -52 51 -40 96 17 63 17 261 -1 342 -25 120
-108 257 -179 295 -19 10 -19 12 0 74 14 50 19 95 19 204 0 133 -2 144 -31
215 -16 41 -49 103 -72 137 -39 58 -118 133 -139 133 -5 0 -7 27 -5 63 7 111
-58 202 -178 248 -59 22 -173 25 -235 5z m251 -59 c116 -59 166 -186 108 -275
-19 -29 -11 -41 14 -19 28 25 35 22 98 -46 164 -175 197 -417 94 -679 -22 -55
-40 -106 -40 -114 0 -25 30 -2 56 42 31 53 34 53 75 9 95 -100 129 -195 137
-373 3 -78 0 -145 -8 -181 -12 -55 -13 -57 -41 -53 -39 6 -37 -13 2 -27 50
-17 115 -76 138 -126 46 -97 16 -210 -83 -310 -147 -150 -382 -188 -432 -70
-19 46 -19 99 0 92 26 -10 25 5 -5 64 -54 108 -73 252 -48 369 10 48 12 50 45
50 43 0 43 10 2 34 -122 70 -184 238 -127 342 38 71 12 76 -45 9 -61 -71 -107
-95 -184 -95 -102 0 -204 53 -232 120 -13 30 -30 41 -30 17 0 -7 8 -28 19 -47
47 -89 31 -252 -39 -396 -49 -100 -109 -168 -189 -214 -63 -36 -75 -50 -42
-50 30 0 32 -38 5 -119 -32 -95 -64 -146 -120 -191 -164 -131 -336 -40 -375
199 -26 159 67 390 193 482 30 21 49 28 65 24 28 -7 28 -7 3 90 -57 224 27
473 204 604 45 34 63 67 30 54 -55 -21 -41 151 22 267 55 102 194 212 194 155
0 -8 3 -15 8 -15 4 0 13 34 20 76 24 154 130 271 292 325 49 16 161 4 216 -24z"/>
<path d="M7028 3226 c-12 -100 -121 -290 -224 -389 -76 -73 -74 -92 3 -37 66
47 115 62 199 62 85 -1 135 -16 175 -54 64 -62 69 -64 69 -35 0 16 -13 39 -33
59 -77 78 -163 298 -167 426 -1 31 -18 7 -22 -32z m62 -276 c27 -53 27 -53
-37 -46 -32 3 -75 2 -96 -3 -21 -5 -37 -6 -35 -3 2 4 28 56 57 116 55 109 55
109 73 42 10 -37 27 -85 38 -106z"/>
<path d="M784 3633 c-28 -5 -101 -68 -118 -102 -30 -57 -40 -144 -27 -221 16
-85 67 -192 116 -241 35 -36 35 -36 -15 -135 -65 -127 -84 -214 -76 -349 8
-144 52 -268 124 -347 35 -39 36 -40 19 -71 -60 -117 -51 -307 19 -437 25 -46
25 -46 -16 -88 -134 -142 -130 -350 11 -476 185 -166 600 -163 821 7 47 36 47
36 89 22 69 -25 267 -20 380 9 223 56 384 175 439 325 40 105 21 256 -42 336
-20 26 -20 26 0 48 47 52 57 87 57 197 -1 95 -3 110 -28 158 -34 65 -99 132
-153 158 -38 18 -42 23 -53 77 -17 81 -75 151 -165 197 -68 35 -71 35 -195 35
-126 0 -126 0 -92 35 131 137 142 419 22 594 -144 209 -455 265 -672 121 -47
-31 -41 -32 -63 10 -51 94 -247 165 -382 138z m161 -48 c79 -21 159 -70 191
-118 25 -38 25 -38 4 -73 -29 -45 -13 -43 40 6 100 92 197 124 354 118 123 -5
189 -31 269 -107 152 -144 181 -393 67 -571 -43 -68 -100 -112 -185 -144 -186
-70 -203 -96 -34 -51 212 57 325 68 427 41 160 -43 243 -159 209 -291 -9 -32
-14 -62 -11 -65 8 -7 44 39 44 56 0 20 18 17 65 -11 134 -78 186 -307 96 -424
-18 -24 -18 -24 -64 -6 -43 16 -67 15 -67 -4 0 -5 13 -11 28 -14 38 -8 87 -59
119 -125 127 -260 -118 -532 -517 -574 -117 -12 -199 0 -312 46 -62 25 -80 15
-38 -21 11 -10 20 -21 20 -25 0 -13 -183 -97 -245 -113 -208 -54 -446 -14
-558 94 -63 59 -82 104 -82 196 0 74 3 85 38 150 57 102 65 110 91 86 72 -65
108 -53 46 17 -98 108 -130 188 -130 324 0 94 23 162 86 254 24 35 44 66 44
69 0 17 -33 -1 -63 -35 -36 -39 -36 -39 -63 -7 -94 112 -139 345 -99 516 24
99 89 231 114 231 19 0 15 7 -24 56 -118 145 -159 273 -125 395 33 120 122
161 265 124z"/>
<path d="M1140 3244 c0 -7 9 -31 20 -55 43 -96 20 -261 -60 -435 -46 -100 -44
-94 -25 -94 8 0 31 24 49 53 41 63 121 106 215 114 54 5 57 4 73 -26 9 -17 24
-31 33 -31 19 0 19 -1 -1 46 -20 47 -24 175 -6 224 6 20 34 62 61 95 60 72 49
82 -28 28 -65 -46 -121 -67 -153 -58 -58 16 -117 49 -122 69 -7 25 -55 86 -56
70z m216 -179 c45 6 45 6 37 -22 -4 -15 -8 -60 -8 -99 0 -72 0 -72 -52 -77
-28 -3 -73 -15 -99 -26 -26 -12 -49 -19 -51 -17 -3 2 5 35 16 74 12 39 21 97
21 135 0 66 0 66 46 45 35 -15 57 -18 90 -13z"/>
<path d="M1812 2229 c-36 -65 -108 -129 -180 -160 -102 -44 -250 -5 -265 69
-8 36 -58 112 -74 112 -18 0 -17 -4 12 -46 35 -52 50 -108 50 -194 0 -81 -17
-127 -77 -203 -17 -21 -28 -41 -25 -44 10 -9 53 23 83 61 27 34 29 34 55 19
29 -17 39 -39 39 -88 0 -24 -10 -39 -49 -72 -48 -41 -97 -121 -89 -145 2 -6
14 4 26 23 30 50 130 143 181 168 61 32 184 61 253 61 58 0 61 -2 104 -46 43
-44 96 -74 130 -74 11 0 2 11 -23 29 -116 84 -147 151 -148 311 0 66 7 134 18
183 24 101 19 109 -21 36z m-27 -221 c0 -98 4 -150 13 -165 13 -23 12 -23 -50
-23 -79 0 -183 -22 -237 -49 -52 -27 -51 -27 -51 15 0 34 -35 83 -67 95 -8 3
-10 28 -6 86 6 82 6 82 37 65 52 -28 169 -23 233 10 38 21 128 95 128 107 0 0
0 -63 0 -141z"/>
<path d="M3375 3374 c-41 -15 -85 -50 -85 -68 0 -6 -21 -19 -47 -29 -97 -34
-147 -104 -147 -204 -1 -73 19 -107 79 -137 46 -23 113 -11 155 28 17 17 41
25 78 28 109 10 193 106 200 228 5 79 -12 121 -61 150 -38 24 -113 25 -172 4z
m165 -34 c46 -46 51 -110 16 -186 -28 -60 -56 -90 -111 -115 -50 -23 -75 -24
-75 -3 0 12 -13 4 -44 -24 -70 -65 -140 -68 -177 -9 -63 105 38 256 174 257
39 0 51 18 17 27 -30 8 -20 25 30 51 59 29 141 31 170 2z"/>
<path d="M11930 3270 c-14 -5 -137 -40 -275 -79 -861 -241 -928 -260 -932
-265 -9 -9 -12 -86 -3 -91 4 -3 3 -22 -3 -43 -19 -63 -11 -235 16 -352 14 -58
23 -107 22 -108 -2 -2 -55 -8 -117 -13 -169 -13 -354 -55 -380 -86 -20 -25 5
-225 42 -330 17 -48 33 -96 36 -105 4 -12 1 -18 -8 -18 -7 0 -29 -13 -49 -29
-19 -16 -53 -34 -76 -40 -96 -26 -194 -119 -209 -199 -13 -68 44 -172 94 -172
15 0 18 -5 14 -25 -16 -84 46 -159 162 -197 100 -33 295 -33 408 0 77 22 77
22 114 -3 54 -37 97 -47 223 -52 175 -8 373 36 439 97 19 18 26 19 65 8 84
-22 218 22 294 98 69 70 80 159 25 206 -26 22 -26 24 -10 41 11 10 18 32 18
57 0 79 -95 147 -220 157 -57 5 -70 9 -70 23 0 19 -40 60 -58 60 -16 0 -15 11
8 64 27 63 49 184 52 281 3 76 2 80 -22 91 -71 35 -212 60 -442 80 -67 5 -67
5 -88 97 -36 156 -46 257 -32 339 22 129 -25 109 477 209 242 48 464 93 493
99 46 10 52 14 52 36 0 14 -6 27 -14 30 -8 3 -193 -31 -412 -75 -218 -45 -399
-79 -401 -78 -2 2 81 27 184 55 658 182 687 192 639 228 -22 16 -21 16 -56 4z
m-959 -383 c-48 -113 -50 -245 -6 -439 35 -155 39 -192 26 -245 -16 -62 -33
-84 -68 -86 -36 -3 -37 0 -23 53 16 59 9 147 -25 300 -51 236 -20 434 71 457
22 5 40 9 42 8 1 -1 -6 -23 -17 -48z m-114 -4 c-47 -149 -48 -233 -7 -433 48
-231 37 -330 -37 -330 -34 0 -34 0 -26 33 15 58 7 160 -22 282 -53 228 -33
425 46 452 47 16 52 16 46 -4z m-81 -618 c7 -28 -2 -84 -19 -122 -11 -24 -13
-24 -81 -18 -169 15 -315 48 -354 79 -35 27 178 69 425 85 16 1 24 -6 29 -24z
m499 4 c39 -5 105 -19 149 -31 79 -21 79 -21 55 -39 -13 -10 -64 -28 -112 -39
-90 -21 -361 -49 -372 -38 -4 3 1 27 9 52 9 26 16 63 16 83 0 36 0 36 93 29
50 -4 124 -12 162 -17z m-885 -144 c105 -36 252 -50 520 -50 299 0 475 22 573
72 26 13 27 12 27 -11 0 -122 -898 -158 -1158 -46 -37 16 -51 28 -55 46 -4 20
-1 24 12 18 9 -4 45 -17 81 -29z m-15 -100 c119 -37 253 -49 530 -49 277 0
411 12 530 49 68 20 68 20 60 -22 -20 -107 -122 -293 -161 -293 -17 0 -63 -29
-102 -64 -14 -13 -50 -25 -90 -32 -66 -12 -132 -37 -183 -70 -25 -16 -28 -16
-90 15 -46 22 -85 33 -139 38 -60 5 -78 11 -92 28 -21 27 -77 55 -110 55 -72
0 -218 228 -218 341 0 23 2 23 65 4z m1126 -255 c29 -16 23 -36 -13 -46 -18
-6 -34 -16 -36 -25 -2 -12 14 -15 100 -14 62 0 118 -5 142 -14 51 -18 116 -77
116 -105 0 -30 -35 -66 -63 -66 -13 0 -32 -7 -43 -15 -18 -13 -16 -14 24 -15
44 0 81 -14 94 -34 23 -34 -10 -122 -61 -164 -56 -46 -179 -81 -240 -67 -26 5
-30 11 -33 42 -2 20 -9 38 -17 41 -10 3 -12 -3 -7 -25 28 -125 -493 -219 -648
-118 -26 17 -26 17 -6 42 19 25 27 53 14 53 -3 0 -15 -11 -26 -25 -29 -37
-160 -75 -283 -82 -170 -10 -299 25 -351 93 -34 44 -31 82 12 138 20 26 34 50
31 52 -6 7 -58 -24 -75 -45 -17 -20 -60 11 -86 63 -54 109 74 230 267 251 48
5 67 11 67 21 0 10 -12 14 -41 14 -46 0 -50 19 -6 34 24 9 31 5 76 -42 41 -42
47 -53 35 -63 -21 -17 -17 -31 5 -19 36 19 98 12 128 -14 28 -24 28 -24 5 -42
-23 -19 -22 -19 80 -19 117 0 164 -14 233 -70 51 -42 70 -45 61 -10 -6 22 -1
27 42 49 91 46 155 52 266 27 104 -24 111 -24 101 8 -4 14 -24 26 -61 38 -54
17 -54 17 -33 40 35 36 80 47 123 29 39 -16 48 -6 20 25 -15 16 -14 20 11 53
29 38 44 43 76 26z"/>
<path d="M3088 2850 c-57 -15 -148 -64 -191 -104 -21 -20 -45 -36 -53 -36 -29
0 -93 -70 -110 -122 -20 -61 -15 -184 9 -221 14 -22 13 -26 -17 -73 -119 -182
-140 -413 -48 -524 28 -33 28 -33 9 -89 -68 -201 86 -380 318 -369 61 3 94 10
138 30 55 26 60 27 83 11 14 -9 55 -18 93 -21 59 -4 77 -1 126 22 42 19 74 26
119 26 191 0 301 226 180 370 -57 67 -157 90 -222 50 -32 -20 -32 -20 -73 9
-66 49 -172 60 -250 27 -12 -5 -19 1 -27 24 -11 31 -11 31 36 23 88 -15 234
-7 308 16 130 43 194 103 194 185 0 29 7 43 34 66 59 52 81 118 81 240 -1 85
-5 113 -22 150 -45 97 -133 153 -246 157 -65 2 -70 3 -95 36 -31 40 -100 88
-152 106 -47 16 -176 22 -222 11z m147 -31 c108 -20 183 -72 223 -156 18 -38
27 -41 35 -13 10 39 126 21 201 -31 115 -79 136 -284 43 -421 -36 -53 -42 -57
-50 -28 -3 11 -11 20 -17 20 -8 0 -10 -8 -5 -22 3 -13 9 -45 12 -71 5 -46 4
-49 -35 -86 -109 -104 -336 -125 -529 -51 -40 15 -73 24 -73 20 0 -10 58 -60
69 -60 27 0 36 -128 15 -197 -4 -17 -2 -23 9 -23 20 0 36 21 43 60 8 39 50 60
119 60 59 0 99 -17 172 -74 57 -45 75 -47 53 -6 -9 17 -7 22 15 30 111 42 224
-53 211 -178 -12 -125 -129 -194 -266 -158 -62 16 -70 14 -46 -13 21 -23 17
-26 -59 -42 -95 -19 -165 1 -132 39 17 21 27 48 20 55 -3 3 -29 -14 -58 -37
-73 -60 -133 -81 -225 -80 -189 1 -303 131 -269 305 10 49 15 59 28 53 33 -13
51 -16 67 -10 13 5 6 14 -32 43 -27 21 -57 47 -66 58 -23 26 -48 109 -48 157
0 106 63 276 136 365 41 49 42 57 9 51 -20 -4 -26 0 -34 26 -20 64 -22 98 -11
145 16 67 97 163 83 99 -5 -26 -6 -27 66 63 37 45 133 96 202 108 30 5 57 9
60 10 3 0 32 -4 64 -10z"/>
<path d="M3127 2553 c4 -15 8 -75 7 -133 0 -90 -4 -114 -27 -169 -15 -36 -27
-68 -27 -73 0 -17 30 -7 41 15 7 12 17 25 23 29 18 12 112 20 145 13 28 -6 31
-10 31 -44 0 -35 14 -61 32 -61 4 0 8 18 8 39 0 57 31 148 73 213 42 67 33 84
-17 33 -32 -31 -41 -35 -88 -35 -94 0 -138 38 -170 149 -7 25 -19 46 -26 49
-10 3 -11 -3 -5 -25z m120 -202 c12 -6 42 -11 67 -11 44 0 44 0 29 -40 -14
-34 -19 -39 -37 -33 -12 5 -49 8 -84 8 -58 0 -63 2 -58 20 3 11 8 39 12 63 7
43 7 43 28 24 11 -11 31 -25 43 -31z"/>
<path d="M8183 2706 c-93 -30 -157 -92 -187 -179 -18 -52 -21 -152 -7 -190 7
-19 3 -34 -24 -78 -106 -171 -99 -416 16 -535 30 -31 30 -31 -2 -125 -72 -213
-33 -358 117 -434 77 -39 190 -41 250 -5 85 51 137 120 164 218 16 60 14 207
-4 266 -13 42 -13 52 -1 70 38 58 59 293 31 356 -5 13 3 16 54 15 50 0 59 -3
54 -15 -52 -126 -42 -250 31 -395 35 -70 35 -71 20 -114 -36 -102 -6 -228 71
-305 112 -113 341 -109 425 7 84 116 91 381 14 532 -23 47 -23 47 -3 113 40
136 26 342 -33 467 -75 160 -267 249 -404 186 -30 -13 -47 -16 -65 -9 -25 10
-125 5 -167 -7 -17 -6 -24 0 -38 28 -53 113 -192 172 -312 133z m182 -60 c24
-14 59 -49 79 -77 37 -51 37 -51 -3 -94 -42 -46 -60 -90 -44 -106 7 -7 18 1
32 24 32 51 94 104 138 116 44 12 126 15 121 4 -2 -5 -10 -20 -17 -36 -22 -42
-6 -44 33 -4 45 47 95 67 165 67 231 -1 374 -325 280 -635 -36 -119 -35 -154
2 -109 15 19 19 13 48 -75 16 -49 21 -89 21 -170 0 -250 -84 -357 -264 -336
-158 17 -240 112 -238 274 1 75 8 101 28 101 19 0 20 -2 -29 94 -89 171 -86
345 6 443 38 40 29 52 -21 29 -60 -29 -140 -32 -190 -7 -65 33 -83 28 -43 -13
44 -45 60 -141 43 -252 -14 -89 -44 -164 -66 -164 -20 0 -21 -14 -2 -29 22
-18 39 -134 34 -225 -11 -176 -109 -286 -253 -286 -145 0 -237 95 -237 244 0
75 31 212 57 253 14 20 12 25 -16 55 -91 100 -124 266 -79 402 22 67 81 167
118 200 12 11 22 23 22 28 0 13 -22 9 -42 -9 -26 -24 -33 -10 -31 65 4 199
190 320 348 228z"/>
<path d="M4488 2625 c-32 -8 -75 -24 -97 -35 -37 -19 -42 -19 -78 -4 -58 25
-178 14 -250 -22 -131 -67 -188 -212 -128 -328 14 -26 13 -29 -15 -59 -66 -70
-130 -232 -130 -327 0 -80 20 -129 74 -184 51 -52 51 -52 19 -99 -98 -145 -40
-328 130 -411 121 -60 294 -40 389 44 46 40 46 40 104 13 246 -112 477 66 436
334 -12 72 -11 79 13 138 66 166 49 373 -43 509 -28 41 -29 48 -20 88 22 97
-8 222 -68 282 -65 65 -214 92 -336 61z m247 -52 c109 -57 145 -187 95 -343
-24 -75 -23 -70 -6 -70 8 0 22 10 30 21 14 21 15 20 40 -30 57 -112 70 -252
36 -386 -11 -43 -22 -80 -25 -83 -2 -2 -20 12 -39 33 -53 56 -57 35 -12 -56
106 -214 21 -418 -184 -436 -46 -4 -72 0 -145 26 -135 48 -133 48 -115 27 12
-16 11 -20 -10 -37 -209 -163 -522 -57 -524 176 0 79 29 142 95 206 57 55 58
74 2 44 -36 -20 -36 -20 -79 28 -24 27 -48 65 -54 85 -32 117 20 280 130 405
41 46 42 51 9 48 -35 -4 -41 136 -9 200 43 82 162 136 276 124 58 -6 64 -9 59
-26 -9 -26 2 -24 69 12 85 46 139 59 236 55 62 -2 96 -8 125 -23z"/>
<path d="M4280 2271 c0 -5 7 -26 16 -47 19 -46 13 -131 -13 -175 -15 -26 -22
-28 -53 -24 -35 6 -35 6 -10 -12 48 -35 69 -65 81 -119 12 -54 12 -56 -24
-125 -21 -38 -37 -72 -37 -75 0 -3 44 -2 98 2 110 7 124 3 183 -53 24 -23 39
-31 44 -23 7 11 -34 80 -47 80 -5 0 -8 18 -8 40 0 40 24 98 62 153 19 27 19
27 -5 27 -19 0 -26 6 -31 31 -10 54 -7 130 10 197 18 71 14 86 -14 52 -38 -47
-164 -17 -212 50 -21 29 -40 39 -40 21z m181 -129 c46 -4 47 -5 38 -29 -14
-37 -11 -135 6 -183 15 -41 14 -45 -10 -94 -14 -27 -25 -60 -25 -73 0 -23 -2
-23 -49 -17 -28 4 -63 2 -80 -4 -35 -12 -37 -8 -16 41 21 52 18 115 -8 167
-23 44 -23 44 -1 85 12 22 25 63 29 91 7 52 7 52 38 36 17 -8 52 -17 78 -20z"/>
</g>
</svg>
