<?xml version="1.0" standalone="no"?>
<!DOCTYPE svg PUBLIC "-//W3C//DTD SVG 20010904//EN"
 "http://www.w3.org/TR/2001/REC-SVG-20010904/DTD/svg10.dtd">
<svg version="1.0" xmlns="http://www.w3.org/2000/svg"
 width="1280.000000pt" height="503.000000pt" viewBox="0 0 1280.000000 503.000000"
 preserveAspectRatio="xMidYMid meet">
<metadata>
Created by potrace 1.16, written by Peter Selinger 2001-2019
</metadata>
<g transform="translate(0.000000,503.000000) scale(0.100000,-0.100000)"
fill="#000000" stroke="none">
<path d="M7255 4176 c-75 -28 -134 -65 -168 -106 -27 -32 -27 -32 -80 14 -164
140 -387 135 -387 -9 0 -124 286 -278 473 -255 119 14 306 128 372 226 79 116
-44 193 -210 130z m175 -34 c64 -52 -75 -183 -283 -267 -88 -35 -88 -35 -175
-10 -226 65 -368 192 -291 261 30 27 137 25 201 -3 53 -24 158 -99 158 -113 0
-19 28 -10 44 15 59 90 285 166 346 117z"/>
<path d="M6960 3663 c-145 -51 -276 -197 -288 -324 -4 -43 -7 -49 -33 -54 -80
-18 -192 -151 -229 -273 -20 -65 -27 -176 -11 -200 5 -9 -13 -34 -58 -80 -143
-144 -206 -374 -156 -562 8 -30 15 -56 15 -56 0 -1 -13 -7 -30 -14 -49 -20
-149 -136 -186 -215 -169 -354 44 -728 332 -582 114 58 203 209 204 344 0 36
4 44 35 63 126 78 235 305 235 490 0 59 0 59 44 39 95 -42 203 -41 272 2 37
22 48 24 41 6 -17 -45 30 -176 85 -233 30 -32 30 -32 14 -85 -30 -101 -18
-256 28 -364 11 -24 18 -69 19 -115 4 -169 151 -222 351 -127 251 119 340 377
182 531 -52 51 -52 51 -40 96 17 63 17 261 -1 342 -25 120 -108 257 -179 295
-19 10 -19 12 0 74 33 112 27 323 -12 419 -48 120 -165 270 -210 270 -5 0 -8
29 -6 63 10 189 -212 322 -418 250z m227 -44 c134 -50 193 -171 136 -282 -20
-39 -11 -55 14 -28 27 29 43 21 109 -52 153 -167 185 -418 84 -667 -47 -114
-48 -121 -33 -127 7 -3 27 18 44 46 39 62 37 61 86 8 92 -100 133 -221 133
-392 0 -155 -14 -212 -51 -207 -43 6 -35 -12 14 -34 165 -74 193 -261 63 -410
-141 -160 -401 -211 -452 -89 -19 46 -19 99 0 92 26 -10 25 5 -5 64 -54 108
-73 252 -48 369 10 48 12 50 45 50 42 0 43 10 3 34 -124 73 -184 234 -128 341
38 72 13 78 -45 10 -63 -73 -107 -95 -188 -95 -96 1 -201 56 -228 119 -13 31
-30 42 -30 18 0 -7 9 -29 20 -50 16 -29 20 -56 20 -128 0 -206 -96 -392 -249
-479 -63 -36 -75 -50 -42 -50 30 0 32 -38 6 -117 -124 -367 -495 -319 -497 64
0 201 158 471 263 448 27 -6 27 -6 6 57 -75 227 26 528 221 656 27 18 30 46 3
37 -52 -16 -37 152 24 264 54 98 195 211 195 156 0 -44 18 -5 28 61 36 233
274 388 479 313z"/>
<path d="M7028 3225 c-12 -102 -134 -309 -239 -403 -62 -56 -53 -74 13 -26
123 91 303 89 392 -3 47 -49 56 -52 56 -19 0 14 -15 41 -36 63 -61 65 -135
229 -149 328 -15 118 -29 139 -37 60z m62 -275 c27 -53 27 -54 -32 -47 -29 3
-72 2 -96 -2 -24 -5 -41 -6 -40 -2 108 223 111 227 130 157 10 -37 27 -85 38
-106z"/>
<path d="M784 3633 c-28 -5 -101 -68 -118 -102 -65 -126 -27 -334 83 -454 41
-44 41 -44 -9 -143 -122 -238 -99 -538 53 -701 30 -32 30 -32 9 -82 -56 -128
-44 -301 28 -430 21 -37 21 -37 -19 -79 -169 -178 -115 -439 112 -542 212 -95
539 -64 714 70 52 39 52 39 94 25 28 -10 82 -15 164 -15 310 0 578 144 657
352 38 101 18 254 -44 333 -20 26 -20 26 0 48 67 74 82 253 29 355 -34 65 -99
132 -153 158 -38 18 -42 23 -53 77 -17 81 -75 151 -165 197 -68 35 -71 35
-195 35 -126 0 -126 0 -92 35 131 136 142 401 26 585 -137 216 -455 277 -677
130 -22 -15 -41 -25 -42 -23 -81 132 -246 202 -402 171z m206 -63 c69 -27 105
-53 141 -103 29 -40 29 -40 8 -73 -28 -47 -11 -42 47 10 115 106 315 148 467
97 370 -122 385 -683 23 -809 -180 -62 -184 -93 -5 -43 57 16 131 34 163 40
285 52 499 -86 452 -291 -8 -35 -12 -65 -9 -68 7 -7 43 39 43 56 0 22 23 17
72 -16 119 -79 170 -260 108 -383 -31 -61 -34 -63 -80 -42 -39 17 -70 15 -70
-5 0 -5 9 -10 20 -10 31 0 97 -66 127 -128 41 -84 41 -202 -1 -285 -126 -249
-584 -372 -858 -231 -36 18 -40 -4 -7 -37 25 -25 27 -23 -73 -74 -189 -98
-458 -110 -621 -28 -187 93 -227 266 -106 453 39 61 39 61 76 31 21 -17 48
-31 61 -31 20 0 15 9 -42 76 -91 106 -110 159 -111 299 0 123 17 176 90 275
54 74 33 89 -28 20 -36 -39 -36 -39 -61 -9 -96 114 -141 346 -101 518 25 104
90 235 115 228 29 -7 26 -2 -35 74 -96 119 -131 212 -123 324 14 170 139 236
318 165z"/>
<path d="M1140 3244 c0 -5 9 -33 20 -62 40 -105 19 -257 -59 -425 -47 -101
-46 -97 -26 -97 9 0 30 22 46 49 38 61 129 110 217 118 55 5 58 4 74 -26 9
-17 24 -31 33 -31 19 0 19 -1 -1 46 -22 52 -23 187 -2 235 8 19 37 60 63 89
66 74 34 80 -55 9 -44 -34 -106 -52 -146 -40 -65 19 -101 43 -113 76 -11 31
-51 77 -51 59z m216 -179 c45 6 45 6 37 -22 -4 -15 -8 -60 -8 -99 0 -72 0 -72
-52 -77 -28 -3 -73 -15 -99 -26 -60 -27 -60 -27 -35 57 12 39 21 97 21 135 0
66 0 66 46 45 35 -15 57 -18 90 -13z"/>
<path d="M1819 2245 c-28 -60 -104 -136 -168 -167 -85 -42 -246 -23 -271 32
-37 81 -66 133 -77 137 -24 9 -26 -5 -4 -33 85 -107 75 -284 -22 -407 -16 -21
-27 -40 -24 -43 10 -11 66 27 84 56 21 37 45 38 72 4 35 -45 28 -91 -21 -133
-48 -41 -98 -116 -97 -145 0 -20 1 -19 17 4 100 149 269 239 450 240 50 0 55
-3 97 -45 42 -44 97 -75 131 -75 11 0 3 11 -22 29 -65 48 -111 103 -129 156
-25 70 -25 236 -2 338 23 97 17 118 -14 52z m-34 -222 c0 -71 4 -145 8 -165 8
-38 8 -38 -50 -38 -74 0 -180 -23 -232 -49 -52 -27 -51 -27 -51 15 0 34 -35
83 -67 95 -8 3 -10 28 -6 86 6 82 6 82 37 65 51 -28 169 -23 231 10 38 20 130
95 130 107 0 0 0 -56 0 -126z"/>
<path d="M3375 3374 c-41 -15 -85 -50 -85 -68 0 -6 -21 -19 -47 -29 -96 -34
-147 -104 -147 -203 -2 -136 135 -200 234 -109 17 16 41 24 78 27 231 21 285
400 57 397 -27 0 -68 -7 -90 -15z m170 -40 c74 -79 19 -240 -100 -295 -50 -23
-75 -24 -75 -3 0 12 -13 4 -44 -24 -100 -92 -206 -48 -194 80 9 86 101 168
190 168 40 0 52 18 18 27 -62 16 40 72 133 73 39 0 52 -5 72 -26z"/>
<path d="M11930 3270 c-14 -5 -180 -52 -370 -105 -605 -170 -833 -235 -837
-239 -9 -9 -12 -86 -3 -91 4 -3 3 -22 -3 -43 -19 -63 -11 -235 16 -352 14 -58
23 -107 22 -108 -2 -2 -55 -8 -117 -13 -169 -13 -354 -55 -380 -86 -20 -25 5
-225 42 -330 17 -48 33 -96 36 -105 4 -12 1 -18 -8 -18 -7 0 -29 -13 -49 -29
-19 -16 -53 -34 -76 -40 -96 -26 -194 -119 -209 -199 -13 -68 44 -172 94 -172
15 0 18 -5 14 -25 -16 -84 46 -159 162 -197 100 -33 295 -33 408 0 77 22 77
22 114 -3 132 -89 548 -61 662 45 19 18 26 19 65 8 195 -52 451 192 319 304
-26 22 -26 24 -10 41 11 10 18 32 18 56 0 79 -96 148 -221 158 -56 5 -69 9
-69 23 0 19 -40 60 -58 60 -16 0 -15 11 8 64 27 63 49 184 52 281 3 76 2 80
-22 91 -70 34 -231 64 -432 80 -77 6 -77 6 -98 97 -36 156 -46 257 -32 339 22
129 -25 109 477 209 242 48 464 93 493 99 53 12 76 51 38 66 -7 3 -183 -29
-391 -71 -207 -42 -379 -74 -381 -72 -5 4 -15 1 346 102 428 120 434 122 445
139 8 13 5 21 -9 32 -22 16 -22 16 -56 4z m-959 -384 c-51 -118 -51 -223 0
-472 41 -203 28 -287 -46 -295 -39 -4 -39 -2 -25 51 16 58 8 153 -24 300 -52
235 -21 434 71 457 48 12 47 14 24 -41z m-116 -3 c-44 -114 -44 -274 -1 -460
45 -193 30 -303 -41 -303 -34 0 -34 0 -26 33 14 57 7 159 -19 277 -56 250 -38
435 45 459 46 13 50 13 42 -6z m-84 -610 c6 -71 -11 -153 -33 -153 -101 0
-335 43 -393 73 -40 20 -40 20 -1 33 84 29 226 51 404 63 14 1 23 -5 23 -16z
m494 -3 c96 -12 237 -49 230 -60 -10 -16 -115 -50 -198 -64 -88 -16 -307 -32
-307 -24 0 3 7 25 15 48 8 23 15 59 15 79 0 36 0 36 83 33 45 -1 118 -7 162
-12z m-805 -164 c300 -61 869 -39 1023 40 26 14 27 13 27 -10 0 -19 -10 -28
-47 -44 -265 -113 -1163 -80 -1163 44 0 23 0 23 43 4 23 -10 76 -25 117 -34z
m-115 -76 c199 -76 865 -79 1100 -6 28 9 51 16 52 16 1 0 -2 -11 -7 -24 -5
-13 -7 -26 -4 -28 9 -10 -44 -147 -74 -189 -51 -71 -55 -75 -102 -96 -25 -11
-58 -34 -75 -51 -22 -24 -39 -32 -66 -32 -50 0 -131 -26 -190 -61 -59 -35 -53
-34 -88 -8 -33 24 -127 49 -187 49 -33 0 -46 6 -74 35 -25 25 -45 36 -79 41
-75 10 -160 104 -205 226 -22 59 -39 138 -31 138 2 0 15 -4 30 -10z m1153
-266 c30 -21 28 -31 -7 -39 -29 -6 -62 -34 -45 -36 5 -1 56 -2 114 -3 120 -1
177 -21 223 -75 46 -55 24 -102 -52 -115 -53 -8 -53 -26 0 -26 189 0 96 -214
-112 -260 -67 -15 -134 -6 -125 16 8 21 -11 64 -29 64 -12 0 -13 -4 -3 -25 54
-118 -451 -217 -634 -124 -39 20 -39 20 -18 46 21 27 26 53 11 53 -5 0 -12 -7
-15 -15 -24 -63 -309 -115 -466 -85 -179 34 -242 125 -160 229 22 28 35 51 27
51 -15 0 -57 -27 -74 -48 -18 -22 -79 27 -92 73 -31 114 93 222 276 240 81 8
97 35 21 35 -46 0 -48 19 -5 34 25 9 32 5 75 -42 48 -52 48 -52 27 -73 -20
-21 -20 -22 0 -14 84 35 200 -8 145 -53 -25 -20 -25 -20 55 -15 103 7 180 -14
252 -68 61 -46 78 -49 69 -14 -6 24 -2 28 48 51 99 45 149 50 257 26 114 -27
109 -27 109 -2 0 21 -35 43 -88 55 -34 7 -34 7 -11 31 33 35 85 47 123 29 42
-21 52 -9 20 26 -15 16 -14 20 11 53 31 40 41 43 73 20z"/>
<path d="M3087 2850 c-58 -15 -138 -59 -184 -101 -24 -22 -49 -39 -58 -39 -30
0 -93 -70 -111 -122 -20 -62 -15 -184 9 -222 15 -23 15 -26 -3 -49 -125 -159
-156 -434 -62 -547 28 -33 28 -33 10 -84 -49 -142 5 -272 140 -338 93 -46 225
-48 315 -6 55 26 60 27 83 11 46 -30 153 -29 219 1 41 18 74 26 115 26 194 0
302 213 185 366 -53 70 -156 95 -223 54 -32 -20 -32 -20 -73 9 -66 49 -172 60
-250 27 -12 -5 -19 1 -28 25 -11 31 -11 31 22 25 252 -53 517 49 517 198 0 29
7 43 34 66 110 97 114 359 7 467 -50 50 -116 77 -194 80 -65 2 -70 3 -95 36
-73 95 -247 149 -375 117z m195 -41 c63 -16 129 -69 167 -134 35 -59 35 -59
44 -31 9 28 10 28 68 22 216 -22 308 -269 174 -469 -32 -48 -32 -48 -48 -25
-21 33 -30 17 -16 -30 34 -116 -57 -194 -259 -222 -112 -15 -201 1 -367 65
-16 6 -14 1 9 -23 16 -18 37 -34 47 -37 35 -11 48 -122 23 -202 -4 -17 -2 -23
9 -23 20 0 36 21 43 59 18 86 164 82 284 -9 63 -47 82 -51 61 -12 -23 43 92
58 149 20 151 -103 69 -334 -118 -331 -37 0 -80 6 -96 12 -36 14 -45 7 -22
-18 20 -22 18 -24 -52 -41 -91 -21 -171 1 -139 38 44 52 26 71 -25 27 -230
-197 -561 -56 -507 216 10 49 15 59 28 53 27 -12 81 -17 81 -7 0 5 -10 15 -22
23 -90 59 -138 141 -138 238 0 99 66 273 137 359 36 44 37 71 3 53 -41 -22
-60 141 -25 210 19 37 54 80 66 80 4 0 5 -10 3 -22 -4 -20 -2 -19 18 7 110
143 252 195 420 154z"/>
<path d="M3127 2553 c19 -69 8 -235 -21 -305 -40 -98 -30 -109 31 -34 15 17
108 31 152 21 28 -6 31 -10 31 -44 0 -34 14 -61 31 -61 3 0 9 27 12 60 5 60
45 162 87 220 30 42 6 48 -32 8 -29 -31 -35 -33 -97 -33 -96 0 -129 30 -163
144 -7 25 -19 46 -26 49 -10 3 -11 -3 -5 -25z m120 -202 c12 -6 42 -11 67 -11
44 0 44 0 29 -40 -14 -34 -19 -39 -37 -33 -12 5 -49 8 -84 8 -58 0 -63 2 -58
20 3 11 8 39 12 63 7 43 7 43 28 24 11 -11 31 -25 43 -31z"/>
<path d="M8183 2706 c-93 -30 -157 -92 -187 -179 -18 -52 -21 -152 -7 -190 7
-19 3 -34 -24 -78 -106 -171 -99 -416 16 -535 30 -31 30 -31 -2 -125 -72 -214
-33 -360 118 -434 174 -85 358 10 413 213 16 60 14 207 -4 266 -13 42 -13 52
-1 70 38 58 59 293 31 357 -6 14 2 16 54 15 50 -1 59 -3 54 -16 -49 -109 -39
-254 27 -385 40 -80 40 -80 24 -124 -36 -102 -7 -228 71 -305 112 -113 341
-109 425 7 84 116 91 381 14 532 -23 47 -23 47 -3 113 42 140 25 349 -37 473
-82 160 -264 242 -400 180 -30 -13 -47 -16 -65 -9 -25 10 -125 5 -167 -7 -17
-6 -24 0 -38 28 -53 112 -194 172 -312 133z m184 -61 c24 -15 58 -48 78 -77
34 -52 34 -52 -5 -94 -42 -45 -59 -89 -43 -105 7 -7 17 1 31 23 32 52 83 96
131 113 45 15 136 21 129 8 -2 -5 -10 -20 -17 -36 -20 -39 -5 -45 27 -10 103
115 289 91 390 -51 97 -135 117 -353 49 -554 -26 -74 -21 -98 13 -67 31 28 70
-112 70 -248 0 -278 -110 -378 -343 -316 -94 25 -157 125 -157 251 0 85 6 108
26 108 19 0 20 -2 -30 94 -85 166 -83 349 5 441 44 47 36 56 -28 29 -71 -29
-131 -30 -183 -4 -62 32 -80 26 -42 -13 44 -45 61 -143 44 -252 -14 -90 -44
-165 -66 -165 -19 0 -21 -26 -3 -33 18 -7 37 -103 37 -182 0 -204 -112 -336
-273 -323 -94 8 -172 60 -205 138 -29 71 -8 250 42 350 14 29 13 32 -15 63
-141 153 -131 393 23 580 44 53 43 71 -2 45 -29 -17 -29 -17 -36 18 -8 45 18
155 46 195 73 101 205 133 307 74z"/>
<path d="M4488 2625 c-32 -8 -75 -24 -97 -35 -37 -19 -42 -19 -78 -4 -58 25
-178 14 -250 -22 -131 -67 -188 -212 -128 -328 14 -26 13 -29 -15 -59 -150
-160 -168 -428 -36 -533 33 -27 33 -27 0 -75 -202 -300 259 -610 532 -357 30
29 30 29 89 2 246 -113 474 60 436 330 -10 75 -10 83 14 141 67 169 49 372
-45 511 -26 39 -27 46 -18 86 22 97 -8 222 -68 282 -65 65 -214 92 -336 61z
m248 -53 c106 -54 144 -191 94 -337 -11 -32 -20 -62 -20 -67 0 -16 29 -7 44
14 15 21 16 21 40 -33 56 -122 70 -245 41 -367 -24 -103 -28 -107 -70 -65 -52
52 -56 33 -11 -58 39 -78 41 -87 41 -173 0 -223 -169 -319 -400 -228 -90 36
-103 38 -85 17 29 -35 -107 -106 -215 -113 -289 -18 -424 260 -222 459 53 52
56 75 5 46 -38 -22 -62 -9 -108 54 -76 105 -33 310 96 457 45 51 46 56 13 53
-50 -5 -35 183 19 242 47 52 167 91 253 81 52 -6 59 -9 54 -25 -9 -26 2 -24
69 12 117 63 273 77 362 31z"/>
<path d="M4280 2273 c0 -5 7 -28 16 -53 33 -93 -5 -200 -68 -193 -33 4 -33 4
-8 -14 48 -35 69 -65 81 -119 12 -54 12 -56 -24 -125 -46 -88 -47 -87 11 -78
125 21 172 11 233 -48 24 -22 39 -31 44 -24 7 13 -31 81 -46 81 -32 0 3 123
57 198 16 21 15 22 -5 22 -43 0 -55 109 -25 228 18 70 12 89 -15 53 -35 -47
-164 -17 -210 48 -21 29 -41 41 -41 24z m181 -131 c47 -4 47 -4 38 -36 -14
-47 -11 -128 6 -176 15 -41 14 -45 -10 -94 -14 -27 -25 -60 -25 -73 0 -23 -2
-23 -49 -17 -28 4 -63 2 -80 -4 -17 -6 -31 -10 -31 -8 0 2 7 23 15 46 21 60
18 118 -8 170 -23 44 -23 44 -1 85 12 22 25 63 29 91 7 52 7 52 38 36 17 -8
52 -17 78 -20z"/>
</g>
</svg>
